<svg width="370" height="68" viewBox="0 0 370 68" fill="none" xmlns="http://www.w3.org/2000/svg">
<path className="line" d="M358.667 0H368.557V51.0469H358.667V0ZM357.495 61.0312C357.495 59.3438 358.089 57.9062 359.276 56.7188C360.464 55.5312 361.901 54.9375 363.589 54.9375C365.307 54.9375 366.745 55.5312 367.901 56.7188C369.089 57.875 369.682 59.3125 369.682 61.0312C369.682 62.75 369.089 64.2031 367.901 65.3906C366.745 66.5469 365.307 67.125 363.589 67.125C361.901 67.125 360.464 66.5312 359.276 65.3438C358.089 64.1562 357.495 62.7188 357.495 61.0312Z" fill="none"/>
<path className="line" d="M304.522 35.5312C304.522 32.3125 305.304 29.3906 306.866 26.7656C308.46 24.1406 310.585 22.0469 313.241 20.4844C315.897 18.8906 318.835 18.0938 322.054 18.0938H349.147V66.6562H339.257V27.9844H322.054C319.96 27.9844 318.163 28.7344 316.663 30.2344C315.163 31.7031 314.413 33.5 314.413 35.625V49.0312C314.413 51.1562 315.163 52.9844 316.663 54.5156C318.163 56.0156 319.96 56.7656 322.054 56.7656H333.632V66.6562H322.054C318.835 66.6562 315.897 65.875 313.241 64.3125C310.585 62.7188 308.46 60.5938 306.866 57.9375C305.304 55.2812 304.522 52.3438 304.522 49.125V35.5312Z" fill="none"/>
<path className="line" d="M252.956 0H262.847V56.7656H280.05C282.175 56.7656 283.972 56.0156 285.441 54.5156C286.941 53.0156 287.691 51.2188 287.691 49.125V35.7188C287.691 33.5938 286.941 31.7812 285.441 30.2812C283.972 28.75 282.175 27.9844 280.05 27.9844H268.472V18.0938H280.05C283.269 18.0938 286.206 18.8906 288.862 20.4844C291.519 22.0469 293.628 24.1562 295.191 26.8125C296.784 29.4688 297.581 32.4062 297.581 35.625V49.2188C297.581 52.4062 296.784 55.3281 295.191 57.9844C293.628 60.6094 291.519 62.7188 288.862 64.3125C286.206 65.875 283.269 66.6562 280.05 66.6562H262.847C260.128 66.6562 257.8 65.6875 255.862 63.75C253.925 61.8125 252.956 59.4844 252.956 56.7656V0Z" fill="none"/>
<path className="line" d="M201.39 35.5312C201.39 32.3125 202.171 29.3906 203.734 26.7656C205.327 24.1406 207.452 22.0469 210.109 20.4844C212.765 18.8906 215.702 18.0938 218.921 18.0938H246.015V66.6562H236.124V27.9844H218.921C216.827 27.9844 215.031 28.7344 213.531 30.2344C212.031 31.7031 211.281 33.5 211.281 35.625V49.0312C211.281 51.1562 212.031 52.9844 213.531 54.5156C215.031 56.0156 216.827 56.7656 218.921 56.7656H230.499V66.6562H218.921C215.702 66.6562 212.765 65.875 210.109 64.3125C207.452 62.7188 205.327 60.5938 203.734 57.9375C202.171 55.2812 201.39 52.3438 201.39 49.125V35.5312Z" fill="none"/>
<path className="line" d="M150.949 0H160.839V18.0938H176.121C179.496 18.0938 182.558 18.8906 185.308 20.4844C188.089 22.0469 190.292 24.1562 191.917 26.8125C193.574 29.4375 194.402 32.3594 194.402 35.5781V66.6562H184.511V35.7188C184.511 33.6562 183.667 31.8594 181.98 30.3281C180.324 28.7656 178.371 27.9844 176.121 27.9844H160.839V66.6562H150.949V0Z" fill="none"/>
<path className="line" d="M121.039 31.6875C121.039 29.1875 121.664 26.9062 122.914 24.8438C124.195 22.7812 125.883 21.1406 127.976 19.9219C130.101 18.7031 132.445 18.0938 135.008 18.0938H145.836V27.9375H135.008C133.883 27.9375 132.914 28.3281 132.101 29.1094C131.32 29.8594 130.929 30.7812 130.929 31.875V66.6562H121.039V31.6875Z" fill="none"/>
<path className="line" d="M69.4725 28.125C69.4725 25.3438 70.4881 22.9844 72.5194 21.0469C74.5506 19.0781 76.9881 18.0938 79.8319 18.0938H100.082C102.676 18.0938 105.019 18.7344 107.113 20.0156C109.238 21.2656 110.926 22.9688 112.176 25.125C113.457 27.25 114.098 29.6094 114.098 32.2031V33.5625C114.098 36.125 113.457 38.4688 112.176 40.5938C110.926 42.6875 109.238 44.375 107.113 45.6562C105.019 46.9062 102.676 47.5312 100.082 47.5312H84.9881V37.6875H100.176C101.301 37.6875 102.254 37.2812 103.035 36.4688C103.848 35.6562 104.254 34.6719 104.254 33.5156V32.2031C104.254 31.0156 103.848 30.0156 103.035 29.2031C102.254 28.3906 101.301 27.9844 100.176 27.9844H79.3631V52.9219C79.3631 53.9844 79.7225 54.8906 80.4413 55.6406C81.16 56.3906 82.035 56.7656 83.0663 56.7656H110.676V66.6562H83.0663C80.5663 66.6562 78.285 66.0469 76.2225 64.8281C74.16 63.5781 72.5194 61.9219 71.3006 59.8594C70.0819 57.7656 69.4725 55.4688 69.4725 52.9688V28.125Z" fill="none"/>
<path className="line" d="M0 0H9.04688L30.5625 26.2969L52.0781 0H61.125V66.6562H51.2344V16.8281L34.6875 36.8906H26.4844L9.89062 16.8281V66.6562H0V0Z" fill="none"/>
</svg>
