<svg width="576" height="87" viewBox="0 0 576 87" fill="none" xmlns="http://www.w3.org/2000/svg">
<path className="line" d="M530.948 29.625C530.948 26.9062 531.916 24.5938 533.854 22.6875C535.823 20.75 538.182 19.7812 540.932 19.7812H558.041C561.26 19.7812 564.198 20.5781 566.854 22.1719C569.51 23.7344 571.619 25.8438 573.182 28.5C574.776 31.1562 575.573 34.0938 575.573 37.3125V68.3438H565.682V37.4531C565.682 35.2656 564.932 33.4062 563.432 31.875C561.963 30.3438 560.166 29.5781 558.041 29.5781H540.838V68.3438H530.948V29.625Z" fill="none"/>
<path className="line" d="M488.1 8.85938C488.1 7.39062 488.6 6.15625 489.6 5.15625C490.6 4.15625 491.819 3.65625 493.256 3.65625C494.725 3.65625 495.959 4.15625 496.959 5.15625C497.959 6.15625 498.459 7.39062 498.459 8.85938C498.459 10.2969 497.959 11.5156 496.959 12.5156C495.959 13.5156 494.725 14.0156 493.256 14.0156C491.819 14.0156 490.6 13.5156 489.6 12.5156C488.6 11.5156 488.1 10.2969 488.1 8.85938ZM504.038 8.85938C504.038 7.39062 504.538 6.15625 505.538 5.15625C506.538 4.15625 507.756 3.65625 509.194 3.65625C510.662 3.65625 511.897 4.15625 512.897 5.15625C513.897 6.15625 514.397 7.39062 514.397 8.85938C514.397 10.2969 513.897 11.5156 512.897 12.5156C511.897 13.5156 510.662 14.0156 509.194 14.0156C507.756 14.0156 506.538 13.5156 505.538 12.5156C504.538 11.5156 504.038 10.2969 504.038 8.85938ZM478.913 19.7812H488.803V50.6719C488.803 52.8594 489.553 54.7188 491.053 56.25C492.553 57.7812 494.35 58.5469 496.444 58.5469H513.647V19.7812H523.537V58.5C523.537 61.2188 522.569 63.5469 520.631 65.4844C518.694 67.3906 516.334 68.3438 513.553 68.3438H496.444C493.225 68.3438 490.288 67.5625 487.631 66C484.975 64.4062 482.85 62.2812 481.256 59.625C479.694 56.9688 478.913 54.0312 478.913 50.8125V19.7812Z" fill="none"/>
<path className="line" d="M426.878 37.2188C426.878 34 427.659 31.0781 429.221 28.4531C430.815 25.8281 432.94 23.7344 435.596 22.1719C438.253 20.5781 441.19 19.7812 444.409 19.7812H461.612C464.331 19.7812 466.659 20.75 468.596 22.6875C470.534 24.625 471.503 26.9531 471.503 29.6719V68.9062C471.503 72.125 470.706 75.0625 469.112 77.7188C467.549 80.375 465.44 82.4844 462.784 84.0469C460.128 85.6406 457.19 86.4375 453.971 86.4375H430.018V76.5469H453.831C455.987 76.5469 457.815 75.7969 459.315 74.2969C460.846 72.8281 461.612 71.0469 461.612 68.9531V29.6719H444.409C442.315 29.6719 440.518 30.4219 439.018 31.9219C437.518 33.3906 436.768 35.1875 436.768 37.3125V50.7656C436.768 52.8594 437.518 54.6719 439.018 56.2031C440.518 57.7031 442.315 58.4531 444.409 58.4531H455.987V68.3438H444.409C441.19 68.3438 438.253 67.5625 435.596 66C432.94 64.4062 430.815 62.2969 429.221 59.6719C427.659 57.0156 426.878 54.0781 426.878 50.8594V37.2188Z" fill="none"/>
<path className="line" d="M387.686 19.7812L400.296 53.4375L413.186 19.7812H424.108L398.327 86.625H387.499L395.046 66.75L377.186 19.7812H387.686Z" fill="none"/>
<path className="line" d="M345.729 1.6875H358.057L381.917 68.3438H371.37L364.104 48.2812H345.495L349.057 38.4375H360.542L351.917 14.625L332.417 68.3438H321.87L345.729 1.6875Z" fill="none"/>
<path className="line" d="M264.159 0C264.159 2.09375 264.909 3.90625 266.409 5.4375C267.941 6.9375 269.753 7.6875 271.847 7.6875C273.972 7.6875 275.784 6.9375 277.284 5.4375C278.784 3.90625 279.534 2.09375 279.534 0H285.816C285.816 2.5625 285.175 4.90625 283.894 7.03125C282.644 9.125 280.956 10.8125 278.831 12.0938C276.737 13.3438 274.409 13.9688 271.847 13.9688C269.284 13.9688 266.941 13.3438 264.816 12.0938C262.722 10.8125 261.034 9.125 259.753 7.03125C258.503 4.90625 257.878 2.5625 257.878 0H264.159ZM249.3 37.2188C249.3 34 250.081 31.0781 251.644 28.4531C253.237 25.8281 255.362 23.7344 258.019 22.1719C260.675 20.5781 263.612 19.7812 266.831 19.7812H284.034C286.753 19.7812 289.081 20.75 291.019 22.6875C292.956 24.625 293.925 26.9531 293.925 29.6719V68.9062C293.925 72.125 293.128 75.0625 291.534 77.7188C289.972 80.375 287.862 82.4844 285.206 84.0469C282.55 85.6406 279.612 86.4375 276.394 86.4375H252.441V76.5469H276.253C278.409 76.5469 280.237 75.7969 281.737 74.2969C283.269 72.8281 284.034 71.0469 284.034 68.9531V29.6719H266.831C264.737 29.6719 262.941 30.4219 261.441 31.9219C259.941 33.3906 259.191 35.1875 259.191 37.3125V50.7656C259.191 52.8594 259.941 54.6719 261.441 56.2031C262.941 57.7031 264.737 58.4531 266.831 58.4531H278.409V68.3438H266.831C263.612 68.3438 260.675 67.5625 258.019 66C255.362 64.4062 253.237 62.2969 251.644 59.6719C250.081 57.0156 249.3 54.0781 249.3 50.8594V37.2188Z" fill="none"/>
<path className="line" d="M197.734 19.7812H207.624V50.6719C207.624 52.8594 208.374 54.7188 209.874 56.25C211.374 57.7812 213.171 58.5469 215.265 58.5469H232.468V19.7812H242.359V58.5C242.359 61.2188 241.39 63.5469 239.452 65.4844C237.515 67.3906 235.156 68.3438 232.374 68.3438H215.265C212.046 68.3438 209.109 67.5625 206.452 66C203.796 64.4062 201.671 62.2812 200.077 59.625C198.515 56.9688 197.734 54.0312 197.734 50.8125V19.7812Z" fill="none"/>
<path className="line" d="M161.449 19.7812H167.777V1.6875H177.667V19.7812H192.621V29.6719H177.667V54.5625C177.667 55.625 178.074 56.5469 178.886 57.3281C179.73 58.0781 180.73 58.4531 181.886 58.4531H192.621V68.3438H181.746C179.183 68.3438 176.839 67.7344 174.714 66.5156C172.621 65.2656 170.933 63.6094 169.652 61.5469C168.402 59.4531 167.777 57.1406 167.777 54.6094V29.6719H161.449V19.7812Z" fill="none"/>
<path className="line" d="M114.945 1.6875H124.836V38.3906H128.164L145.742 19.7812H158.586L136.414 43.3125L160.554 68.3438H146.726L127.273 48.2812H124.836V68.3438H114.945V1.6875Z" fill="none"/>
<path className="line" d="M72.0506 8.85938C72.0506 7.39062 72.5506 6.15625 73.5506 5.15625C74.5506 4.15625 75.7694 3.65625 77.2069 3.65625C78.6756 3.65625 79.91 4.15625 80.91 5.15625C81.91 6.15625 82.41 7.39062 82.41 8.85938C82.41 10.2969 81.91 11.5156 80.91 12.5156C79.91 13.5156 78.6756 14.0156 77.2069 14.0156C75.7694 14.0156 74.5506 13.5156 73.5506 12.5156C72.5506 11.5156 72.0506 10.2969 72.0506 8.85938ZM87.9881 8.85938C87.9881 7.39062 88.4881 6.15625 89.4881 5.15625C90.4881 4.15625 91.7069 3.65625 93.1444 3.65625C94.6131 3.65625 95.8475 4.15625 96.8475 5.15625C97.8475 6.15625 98.3475 7.39062 98.3475 8.85938C98.3475 10.2969 97.8475 11.5156 96.8475 12.5156C95.8475 13.5156 94.6131 14.0156 93.1444 14.0156C91.7069 14.0156 90.4881 13.5156 89.4881 12.5156C88.4881 11.5156 87.9881 10.2969 87.9881 8.85938ZM62.3475 37.3125C62.3475 34.0938 63.1288 31.1562 64.6913 28.5C66.285 25.8438 68.41 23.7344 71.0663 22.1719C73.7225 20.5781 76.66 19.7812 79.8788 19.7812H90.4725C93.6913 19.7812 96.6288 20.5781 99.285 22.1719C101.941 23.7344 104.051 25.8438 105.613 28.5C107.207 31.1562 108.004 34.0938 108.004 37.3125V50.8125C108.004 54.0312 107.207 56.9688 105.613 59.625C104.051 62.2812 101.941 64.4062 99.285 66C96.6288 67.5625 93.6913 68.3438 90.4725 68.3438H79.8788C76.66 68.3438 73.7225 67.5625 71.0663 66C68.41 64.4062 66.285 62.2812 64.6913 59.625C63.1288 56.9688 62.3475 54.0312 62.3475 50.8125V37.3125ZM72.2381 50.7188C72.2381 52.8438 72.9881 54.6719 74.4881 56.2031C75.9881 57.7031 77.785 58.4531 79.8788 58.4531H90.4725C92.5975 58.4531 94.3944 57.7031 95.8631 56.2031C97.3631 54.6719 98.1131 52.8438 98.1131 50.7188V37.4062C98.1131 35.2812 97.3631 33.4688 95.8631 31.9688C94.3944 30.4375 92.5975 29.6719 90.4725 29.6719H79.8788C77.785 29.6719 75.9881 30.4375 74.4881 31.9688C72.9881 33.4688 72.2381 35.2812 72.2381 37.4062V50.7188Z" fill="none"/>
<path className="line" d="M0 20.4375C0 16.9688 0.890625 13.8281 2.67188 11.0156C4.48438 8.17188 6.89062 5.90625 9.89062 4.21875C12.8906 2.53125 16.2188 1.6875 19.875 1.6875H51.4219V11.5312H19.875C17.125 11.5312 14.7656 12.4062 12.7969 14.1562C10.8594 15.875 9.89062 17.9531 9.89062 20.3906V49.6406C9.89062 52.0781 10.8594 54.1719 12.7969 55.9219C14.7656 57.6406 17.125 58.5 19.875 58.5H35.4844C38.2656 58.5 40.625 57.6406 42.5625 55.9219C44.5 54.1719 45.4688 52.0781 45.4688 49.6406V40.9219H27.375V31.0781H55.3594V49.5938C55.3594 53.0312 54.4688 56.1719 52.6875 59.0156C50.9062 61.8594 48.5 64.125 45.4688 65.8125C42.4688 67.5 39.1406 68.3438 35.4844 68.3438H19.875C16.2188 68.3438 12.8906 67.5 9.89062 65.8125C6.89062 64.125 4.48438 61.8594 2.67188 59.0156C0.890625 56.1719 0 53.0312 0 49.5938V20.4375Z" fill="none"/>
</svg>
