<svg width="390" height="68" viewBox="0 0 390 68" fill="none" xmlns="http://www.w3.org/2000/svg">
<path className="line" d="M378.917 0H388.807V51.0469H378.917V0ZM377.745 61.0312C377.745 59.3438 378.339 57.9062 379.526 56.7188C380.714 55.5312 382.151 54.9375 383.839 54.9375C385.557 54.9375 386.995 55.5312 388.151 56.7188C389.339 57.875 389.932 59.3125 389.932 61.0312C389.932 62.75 389.339 64.2031 388.151 65.3906C386.995 66.5469 385.557 67.125 383.839 67.125C382.151 67.125 380.714 66.5312 379.526 65.3438C378.339 64.1562 377.745 62.7188 377.745 61.0312Z" fill="none"/>
<path className="line" d="M325.241 28.125C325.241 25.3438 326.257 22.9844 328.288 21.0469C330.319 19.0781 332.757 18.0938 335.601 18.0938H355.851C358.444 18.0938 360.788 18.7344 362.882 20.0156C365.007 21.2656 366.694 22.9688 367.944 25.125C369.226 27.25 369.866 29.6094 369.866 32.2031V33.5625C369.866 36.125 369.226 38.4688 367.944 40.5938C366.694 42.6875 365.007 44.375 362.882 45.6562C360.788 46.9062 358.444 47.5312 355.851 47.5312H340.757V37.6875H355.944C357.069 37.6875 358.022 37.2812 358.804 36.4688C359.616 35.6562 360.022 34.6719 360.022 33.5156V32.2031C360.022 31.0156 359.616 30.0156 358.804 29.2031C358.022 28.3906 357.069 27.9844 355.944 27.9844H335.132V52.9219C335.132 53.9844 335.491 54.8906 336.21 55.6406C336.929 56.3906 337.804 56.7656 338.835 56.7656H366.444V66.6562H338.835C336.335 66.6562 334.054 66.0469 331.991 64.8281C329.929 63.5781 328.288 61.9219 327.069 59.8594C325.851 57.7656 325.241 55.4688 325.241 52.9688V28.125Z" fill="none"/>
<path className="line" d="M248.55 27.9844C248.55 25.2656 249.519 22.9375 251.456 21C253.394 19.0625 255.737 18.0938 258.487 18.0938H273.3C277.3 18.0938 280.581 19.3438 283.144 21.8438C285.644 19.3438 288.925 18.0938 292.987 18.0938H300.3C303.519 18.0938 306.456 18.8906 309.112 20.4844C311.769 22.0469 313.878 24.1562 315.441 26.8125C317.034 29.4375 317.831 32.3594 317.831 35.5781V66.6562H307.987V35.7188C307.987 33.5625 307.237 31.7344 305.737 30.2344C304.237 28.7031 302.425 27.9375 300.3 27.9375H292.987C291.612 27.9375 290.441 28.375 289.472 29.25C288.503 30.0938 288.019 31.125 288.019 32.3438V66.6562H278.128V32.3438C278.128 31.125 277.659 30.0938 276.722 29.25C275.784 28.375 274.644 27.9375 273.3 27.9375H258.441V66.6562H248.55V27.9844Z" fill="none"/>
<path className="line" d="M195.952 35.625C195.952 32.4062 196.734 29.4688 198.296 26.8125C199.89 24.1562 202.015 22.0469 204.671 20.4844C207.327 18.8906 210.265 18.0938 213.484 18.0938H224.077C227.296 18.0938 230.234 18.8906 232.89 20.4844C235.546 22.0469 237.656 24.1562 239.218 26.8125C240.812 29.4688 241.609 32.4062 241.609 35.625V49.125C241.609 52.3438 240.812 55.2812 239.218 57.9375C237.656 60.5938 235.546 62.7188 232.89 64.3125C230.234 65.875 227.296 66.6562 224.077 66.6562H213.484C210.265 66.6562 207.327 65.875 204.671 64.3125C202.015 62.7188 199.89 60.5938 198.296 57.9375C196.734 55.2812 195.952 52.3438 195.952 49.125V35.625ZM205.843 49.0312C205.843 51.1562 206.593 52.9844 208.093 54.5156C209.593 56.0156 211.39 56.7656 213.484 56.7656H224.077C226.202 56.7656 227.999 56.0156 229.468 54.5156C230.968 52.9844 231.718 51.1562 231.718 49.0312V35.7188C231.718 33.5938 230.968 31.7812 229.468 30.2812C227.999 28.75 226.202 27.9844 224.077 27.9844H213.484C211.39 27.9844 209.593 28.75 208.093 30.2812C206.593 31.7812 205.843 33.5938 205.843 35.7188V49.0312Z" fill="none"/>
<path className="line" d="M144.105 35.625C144.105 32.4062 144.917 29.4688 146.542 26.8125C148.167 24.1562 150.339 22.0469 153.058 20.4844C155.777 18.8906 158.792 18.0938 162.105 18.0938H189.433V27.9844H162.105C159.886 27.9844 157.98 28.75 156.386 30.2812C154.792 31.7812 153.996 33.6094 153.996 35.7656V48.9375C153.996 51.0938 154.777 52.9375 156.339 54.4688C157.933 56 159.855 56.7656 162.105 56.7656H189.433V66.6562H162.105C158.792 66.6562 155.777 65.8594 153.058 64.2656C150.339 62.6719 148.167 60.5469 146.542 57.8906C144.917 55.2031 144.105 52.25 144.105 49.0312V35.625Z" fill="none"/>
<path className="line" d="M127.226 0H137.117V66.6562H127.226V0Z" fill="none"/>
<path className="line" d="M75.66 28.125C75.66 25.3438 76.6756 22.9844 78.7069 21.0469C80.7381 19.0781 83.1756 18.0938 86.0194 18.0938H106.269C108.863 18.0938 111.207 18.7344 113.301 20.0156C115.426 21.2656 117.113 22.9688 118.363 25.125C119.644 27.25 120.285 29.6094 120.285 32.2031V33.5625C120.285 36.125 119.644 38.4688 118.363 40.5938C117.113 42.6875 115.426 44.375 113.301 45.6562C111.207 46.9062 108.863 47.5312 106.269 47.5312H91.1756V37.6875H106.363C107.488 37.6875 108.441 37.2812 109.223 36.4688C110.035 35.6562 110.441 34.6719 110.441 33.5156V32.2031C110.441 31.0156 110.035 30.0156 109.223 29.2031C108.441 28.3906 107.488 27.9844 106.363 27.9844H85.5506V52.9219C85.5506 53.9844 85.91 54.8906 86.6288 55.6406C87.3475 56.3906 88.2225 56.7656 89.2538 56.7656H116.863V66.6562H89.2538C86.7538 66.6562 84.4725 66.0469 82.41 64.8281C80.3475 63.5781 78.7069 61.9219 77.4881 59.8594C76.2694 57.7656 75.66 55.4688 75.66 52.9688V28.125Z" fill="none"/>
<path className="line" d="M9.9375 0L18.6562 50.25L30.6562 28.4062H39.9844L51.9844 50.25L60.7031 0H70.5938L59.0156 66.6562H50.1094L35.2969 39.8438L20.5312 66.6562H11.5781L0 0H9.9375Z" fill="none"/>
</svg>
